<?xml version="1.0" encoding="UTF-8" standalone="no"?>
<!DOCTYPE svg PUBLIC "-//W3C//DTD SVG 1.1//EN"
 "http://www.w3.org/Graphics/SVG/1.1/DTD/svg11.dtd">
<!-- Generated by graphviz version 2.43.0 (0)
 -->
<!-- Title: pastafarianism Pages: 1 -->
<svg width="930pt" height="404pt"
 viewBox="0.00 0.00 930.38 404.00" xmlns="http://www.w3.org/2000/svg" xmlns:xlink="http://www.w3.org/1999/xlink">
<g id="graph0" class="graph" transform="scale(1 1) rotate(0) translate(4 400)">
<title>pastafarianism</title>
<polygon fill="white" stroke="transparent" points="-4,4 -4,-400 926.38,-400 926.38,4 -4,4"/>
<!-- Root -->
<g id="node1" class="node">
<title>Root</title>
<polygon fill="cyan" stroke="black" points="438.72,-370.54 438.72,-385.46 422.91,-396 400.54,-396 384.72,-385.46 384.72,-370.54 400.54,-360 422.91,-360 438.72,-370.54"/>
<text text-anchor="middle" x="411.72" y="-375.8" font-family="Times,serif" font-size="9.00">Root</text>
</g>
<!-- IPK_Mode -->
<g id="node2" class="node">
<title>IPK_Mode</title>
<polygon fill="orange" stroke="black" points="303.22,-324 240.22,-324 240.22,-288 303.22,-288 303.22,-324"/>
<text text-anchor="middle" x="271.72" y="-303.8" font-family="Times,serif" font-size="9.00">IPK_Mode</text>
</g>
<!-- Root&#45;&gt;IPK_Mode -->
<g id="edge1" class="edge">
<title>Root&#45;&gt;IPK_Mode</title>
<path fill="none" stroke="black" d="M390.46,-366.37C369.82,-356.05 337.95,-340.11 312.43,-327.35"/>
<polygon fill="black" stroke="black" points="313.85,-324.15 303.34,-322.81 310.72,-330.41 313.85,-324.15"/>
</g>
<!-- TO_Mode -->
<g id="node10" class="node">
<title>TO_Mode</title>
<polygon fill="orange" stroke="black" points="441.72,-324 381.72,-324 381.72,-288 441.72,-288 441.72,-324"/>
<text text-anchor="middle" x="411.72" y="-303.8" font-family="Times,serif" font-size="9.00">TO_Mode</text>
</g>
<!-- Root&#45;&gt;TO_Mode -->
<g id="edge9" class="edge">
<title>Root&#45;&gt;TO_Mode</title>
<path fill="none" stroke="black" d="M411.72,-359.7C411.72,-351.98 411.72,-342.71 411.72,-334.11"/>
<polygon fill="black" stroke="black" points="415.22,-334.1 411.72,-324.1 408.22,-334.1 415.22,-334.1"/>
</g>
<!-- AM_Mode -->
<g id="node21" class="node">
<title>AM_Mode</title>
<polygon fill="orange" stroke="black" points="568.72,-324 506.72,-324 506.72,-288 568.72,-288 568.72,-324"/>
<text text-anchor="middle" x="537.72" y="-303.8" font-family="Times,serif" font-size="9.00">AM_Mode</text>
</g>
<!-- Root&#45;&gt;AM_Mode -->
<g id="edge20" class="edge">
<title>Root&#45;&gt;AM_Mode</title>
<path fill="none" stroke="black" d="M431.97,-365.75C449.7,-355.9 475.99,-341.3 497.91,-329.12"/>
<polygon fill="black" stroke="black" points="499.65,-332.15 506.7,-324.24 496.26,-326.03 499.65,-332.15"/>
</g>
<!-- CheckIPK -->
<g id="node3" class="node">
<title>CheckIPK</title>
<ellipse fill="gray" stroke="black" cx="180.72" cy="-234" rx="35.59" ry="18"/>
<text text-anchor="middle" x="180.72" y="-231.8" font-family="Times,serif" font-size="9.00">CheckIPK</text>
</g>
<!-- IPK_Mode&#45;&gt;CheckIPK -->
<g id="edge2" class="edge">
<title>IPK_Mode&#45;&gt;CheckIPK</title>
<path fill="none" stroke="black" d="M249.23,-287.7C236.71,-278.07 221.03,-266.01 207.84,-255.86"/>
<polygon fill="black" stroke="black" points="209.64,-252.83 199.58,-249.51 205.38,-258.38 209.64,-252.83"/>
</g>
<!-- IPK_Root -->
<g id="node4" class="node">
<title>IPK_Root</title>
<polygon fill="cyan" stroke="black" points="308.46,-226.54 308.46,-241.46 286.94,-252 256.51,-252 234.98,-241.46 234.98,-226.54 256.51,-216 286.94,-216 308.46,-226.54"/>
<text text-anchor="middle" x="271.72" y="-231.8" font-family="Times,serif" font-size="9.00">IPK_Root</text>
</g>
<!-- IPK_Mode&#45;&gt;IPK_Root -->
<g id="edge3" class="edge">
<title>IPK_Mode&#45;&gt;IPK_Root</title>
<path fill="none" stroke="black" d="M271.72,-287.7C271.72,-279.98 271.72,-270.71 271.72,-262.11"/>
<polygon fill="black" stroke="black" points="275.22,-262.1 271.72,-252.1 268.22,-262.1 275.22,-262.1"/>
</g>
<!-- ProcessTarget -->
<g id="node5" class="node">
<title>ProcessTarget</title>
<polygon fill="orange" stroke="black" points="202.72,-180 120.72,-180 120.72,-144 202.72,-144 202.72,-180"/>
<text text-anchor="middle" x="161.72" y="-159.8" font-family="Times,serif" font-size="9.00">ProcessTarget</text>
</g>
<!-- IPK_Root&#45;&gt;ProcessTarget -->
<g id="edge4" class="edge">
<title>IPK_Root&#45;&gt;ProcessTarget</title>
<path fill="none" stroke="black" d="M249.99,-219.17C234.96,-209.6 214.61,-196.65 197.24,-185.6"/>
<polygon fill="black" stroke="black" points="198.78,-182.44 188.47,-180.02 195.03,-188.34 198.78,-182.44"/>
</g>
<!-- WaitForTarget -->
<g id="node9" class="node">
<title>WaitForTarget</title>
<ellipse fill="gray" stroke="black" cx="271.72" cy="-162" rx="47.84" ry="18"/>
<text text-anchor="middle" x="271.72" y="-159.8" font-family="Times,serif" font-size="9.00">WaitForTarget</text>
</g>
<!-- IPK_Root&#45;&gt;WaitForTarget -->
<g id="edge8" class="edge">
<title>IPK_Root&#45;&gt;WaitForTarget</title>
<path fill="none" stroke="black" d="M271.72,-215.7C271.72,-207.98 271.72,-198.71 271.72,-190.11"/>
<polygon fill="black" stroke="black" points="275.22,-190.1 271.72,-180.1 268.22,-190.1 275.22,-190.1"/>
</g>
<!-- HaveTarget? -->
<g id="node6" class="node">
<title>HaveTarget?</title>
<ellipse fill="gray" stroke="black" cx="42.72" cy="-90" rx="42.95" ry="18"/>
<text text-anchor="middle" x="42.72" y="-87.8" font-family="Times,serif" font-size="9.00">HaveTarget?</text>
</g>
<!-- ProcessTarget&#45;&gt;HaveTarget? -->
<g id="edge5" class="edge">
<title>ProcessTarget&#45;&gt;HaveTarget?</title>
<path fill="none" stroke="black" d="M132.61,-143.88C115.39,-133.74 93.51,-120.88 75.66,-110.37"/>
<polygon fill="black" stroke="black" points="77.13,-107.18 66.73,-105.12 73.58,-113.21 77.13,-107.18"/>
</g>
<!-- IsNotSingularity? -->
<g id="node7" class="node">
<title>IsNotSingularity?</title>
<ellipse fill="gray" stroke="black" cx="159.72" cy="-90" rx="56.66" ry="18"/>
<text text-anchor="middle" x="159.72" y="-87.8" font-family="Times,serif" font-size="9.00">IsNotSingularity?</text>
</g>
<!-- ProcessTarget&#45;&gt;IsNotSingularity? -->
<g id="edge6" class="edge">
<title>ProcessTarget&#45;&gt;IsNotSingularity?</title>
<path fill="none" stroke="black" d="M161.23,-143.7C161.01,-135.98 160.74,-126.71 160.5,-118.11"/>
<polygon fill="black" stroke="black" points="164,-118 160.21,-108.1 157,-118.2 164,-118"/>
</g>
<!-- MoveToTarget -->
<g id="node8" class="node">
<title>MoveToTarget</title>
<ellipse fill="gray" stroke="black" cx="281.72" cy="-90" rx="47.19" ry="18"/>
<text text-anchor="middle" x="281.72" y="-87.8" font-family="Times,serif" font-size="9.00">MoveToTarget</text>
</g>
<!-- ProcessTarget&#45;&gt;MoveToTarget -->
<g id="edge7" class="edge">
<title>ProcessTarget&#45;&gt;MoveToTarget</title>
<path fill="none" stroke="black" d="M191.08,-143.88C208.21,-133.88 229.91,-121.23 247.78,-110.8"/>
<polygon fill="black" stroke="black" points="249.85,-113.64 256.73,-105.58 246.33,-107.6 249.85,-113.64"/>
</g>
<!-- CheckTO -->
<g id="node11" class="node">
<title>CheckTO</title>
<ellipse fill="gray" stroke="black" cx="371.72" cy="-234" rx="34.13" ry="18"/>
<text text-anchor="middle" x="371.72" y="-231.8" font-family="Times,serif" font-size="9.00">CheckTO</text>
</g>
<!-- TO_Mode&#45;&gt;CheckTO -->
<g id="edge10" class="edge">
<title>TO_Mode&#45;&gt;CheckTO</title>
<path fill="none" stroke="black" d="M401.84,-287.7C397.17,-279.52 391.5,-269.6 386.34,-260.58"/>
<polygon fill="black" stroke="black" points="389.22,-258.57 381.22,-251.62 383.14,-262.04 389.22,-258.57"/>
</g>
<!-- TO_Root -->
<g id="node12" class="node">
<title>TO_Root</title>
<polygon fill="orange" stroke="black" points="479.72,-252 423.72,-252 423.72,-216 479.72,-216 479.72,-252"/>
<text text-anchor="middle" x="451.72" y="-231.8" font-family="Times,serif" font-size="9.00">TO_Root</text>
</g>
<!-- TO_Mode&#45;&gt;TO_Root -->
<g id="edge11" class="edge">
<title>TO_Mode&#45;&gt;TO_Root</title>
<path fill="none" stroke="black" d="M421.61,-287.7C426.21,-279.64 431.78,-269.89 436.88,-260.98"/>
<polygon fill="black" stroke="black" points="440.03,-262.52 441.95,-252.1 433.95,-259.05 440.03,-262.52"/>
</g>
<!-- GetTeleopFrame -->
<g id="node13" class="node">
<title>GetTeleopFrame</title>
<ellipse fill="gray" stroke="black" cx="395.72" cy="-162" rx="53.23" ry="18"/>
<text text-anchor="middle" x="395.72" y="-159.8" font-family="Times,serif" font-size="9.00">GetTeleopFrame</text>
</g>
<!-- TO_Root&#45;&gt;GetTeleopFrame -->
<g id="edge12" class="edge">
<title>TO_Root&#45;&gt;GetTeleopFrame</title>
<path fill="none" stroke="black" d="M437.88,-215.7C431.07,-207.18 422.74,-196.76 415.28,-187.45"/>
<polygon fill="black" stroke="black" points="418,-185.24 409.02,-179.62 412.54,-189.62 418,-185.24"/>
</g>
<!-- ChooseFrame -->
<g id="node14" class="node">
<title>ChooseFrame</title>
<polygon fill="cyan" stroke="black" points="564.96,-154.54 564.96,-169.46 536.12,-180 495.33,-180 466.49,-169.46 466.49,-154.54 495.33,-144 536.12,-144 564.96,-154.54"/>
<text text-anchor="middle" x="515.72" y="-159.8" font-family="Times,serif" font-size="9.00">ChooseFrame</text>
</g>
<!-- TO_Root&#45;&gt;ChooseFrame -->
<g id="edge13" class="edge">
<title>TO_Root&#45;&gt;ChooseFrame</title>
<path fill="none" stroke="black" d="M467.54,-215.7C475.29,-207.22 484.76,-196.86 493.25,-187.58"/>
<polygon fill="black" stroke="black" points="495.92,-189.85 500.09,-180.1 490.75,-185.12 495.92,-189.85"/>
</g>
<!-- ToolframeBranch -->
<g id="node15" class="node">
<title>ToolframeBranch</title>
<polygon fill="orange" stroke="black" points="442.22,-108 347.22,-108 347.22,-72 442.22,-72 442.22,-108"/>
<text text-anchor="middle" x="394.72" y="-87.8" font-family="Times,serif" font-size="9.00">ToolframeBranch</text>
</g>
<!-- ChooseFrame&#45;&gt;ToolframeBranch -->
<g id="edge14" class="edge">
<title>ChooseFrame&#45;&gt;ToolframeBranch</title>
<path fill="none" stroke="black" d="M489.77,-145.98C473.3,-136.45 451.69,-123.95 433.24,-113.28"/>
<polygon fill="black" stroke="black" points="434.88,-110.19 424.47,-108.21 431.37,-116.25 434.88,-110.19"/>
</g>
<!-- WorldframeBranch -->
<g id="node18" class="node">
<title>WorldframeBranch</title>
<polygon fill="orange" stroke="black" points="568.72,-108 464.72,-108 464.72,-72 568.72,-72 568.72,-108"/>
<text text-anchor="middle" x="516.72" y="-87.8" font-family="Times,serif" font-size="9.00">WorldframeBranch</text>
</g>
<!-- ChooseFrame&#45;&gt;WorldframeBranch -->
<g id="edge17" class="edge">
<title>ChooseFrame&#45;&gt;WorldframeBranch</title>
<path fill="none" stroke="black" d="M515.97,-143.7C516.08,-135.98 516.21,-126.71 516.34,-118.11"/>
<polygon fill="black" stroke="black" points="519.84,-118.15 516.48,-108.1 512.84,-118.05 519.84,-118.15"/>
</g>
<!-- CheckToolFrame -->
<g id="node16" class="node">
<title>CheckToolFrame</title>
<ellipse fill="gray" stroke="black" cx="269.72" cy="-18" rx="53.89" ry="18"/>
<text text-anchor="middle" x="269.72" y="-15.8" font-family="Times,serif" font-size="9.00">CheckToolFrame</text>
</g>
<!-- ToolframeBranch&#45;&gt;CheckToolFrame -->
<g id="edge15" class="edge">
<title>ToolframeBranch&#45;&gt;CheckToolFrame</title>
<path fill="none" stroke="black" d="M364.15,-71.88C346.26,-61.86 323.6,-49.17 304.96,-38.73"/>
<polygon fill="black" stroke="black" points="306.61,-35.65 296.18,-33.81 303.19,-41.75 306.61,-35.65"/>
</g>
<!-- ToolframeMode -->
<g id="node17" class="node">
<title>ToolframeMode</title>
<ellipse fill="gray" stroke="black" cx="391.72" cy="-18" rx="50.46" ry="18"/>
<text text-anchor="middle" x="391.72" y="-15.8" font-family="Times,serif" font-size="9.00">ToolframeMode</text>
</g>
<!-- ToolframeBranch&#45;&gt;ToolframeMode -->
<g id="edge16" class="edge">
<title>ToolframeBranch&#45;&gt;ToolframeMode</title>
<path fill="none" stroke="black" d="M393.98,-71.7C393.65,-63.98 393.25,-54.71 392.89,-46.11"/>
<polygon fill="black" stroke="black" points="396.38,-45.95 392.46,-36.1 389.39,-46.25 396.38,-45.95"/>
</g>
<!-- CheckWorldFrame -->
<g id="node19" class="node">
<title>CheckWorldFrame</title>
<ellipse fill="gray" stroke="black" cx="518.72" cy="-18" rx="58.78" ry="18"/>
<text text-anchor="middle" x="518.72" y="-15.8" font-family="Times,serif" font-size="9.00">CheckWorldFrame</text>
</g>
<!-- WorldframeBranch&#45;&gt;CheckWorldFrame -->
<g id="edge18" class="edge">
<title>WorldframeBranch&#45;&gt;CheckWorldFrame</title>
<path fill="none" stroke="black" d="M517.22,-71.7C517.44,-63.98 517.7,-54.71 517.95,-46.11"/>
<polygon fill="black" stroke="black" points="521.45,-46.2 518.24,-36.1 514.45,-46 521.45,-46.2"/>
</g>
<!-- WorldframeMode -->
<g id="node20" class="node">
<title>WorldframeMode</title>
<ellipse fill="gray" stroke="black" cx="650.72" cy="-18" rx="55.35" ry="18"/>
<text text-anchor="middle" x="650.72" y="-15.8" font-family="Times,serif" font-size="9.00">WorldframeMode</text>
</g>
<!-- WorldframeBranch&#45;&gt;WorldframeMode -->
<g id="edge19" class="edge">
<title>WorldframeBranch&#45;&gt;WorldframeMode</title>
<path fill="none" stroke="black" d="M549.5,-71.88C568.99,-61.7 593.75,-48.76 613.91,-38.23"/>
<polygon fill="black" stroke="black" points="615.57,-41.31 622.81,-33.58 612.33,-35.11 615.57,-41.31"/>
</g>
<!-- CheckAM -->
<g id="node22" class="node">
<title>CheckAM</title>
<ellipse fill="gray" stroke="black" cx="537.72" cy="-234" rx="35.44" ry="18"/>
<text text-anchor="middle" x="537.72" y="-231.8" font-family="Times,serif" font-size="9.00">CheckAM</text>
</g>
<!-- AM_Mode&#45;&gt;CheckAM -->
<g id="edge21" class="edge">
<title>AM_Mode&#45;&gt;CheckAM</title>
<path fill="none" stroke="black" d="M537.72,-287.7C537.72,-279.98 537.72,-270.71 537.72,-262.11"/>
<polygon fill="black" stroke="black" points="541.22,-262.1 537.72,-252.1 534.22,-262.1 541.22,-262.1"/>
</g>
<!-- AM_Root -->
<g id="node23" class="node">
<title>AM_Root</title>
<polygon fill="cyan" stroke="black" points="728.22,-226.54 728.22,-241.46 706.84,-252 676.61,-252 655.23,-241.46 655.23,-226.54 676.61,-216 706.84,-216 728.22,-226.54"/>
<text text-anchor="middle" x="691.72" y="-231.8" font-family="Times,serif" font-size="9.00">AM_Root</text>
</g>
<!-- AM_Mode&#45;&gt;AM_Root -->
<g id="edge22" class="edge">
<title>AM_Mode&#45;&gt;AM_Root</title>
<path fill="none" stroke="black" d="M568.89,-290.83C594.25,-279.31 630.04,-263.04 656.45,-251.03"/>
<polygon fill="black" stroke="black" points="658.06,-254.14 665.72,-246.82 655.17,-247.77 658.06,-254.14"/>
</g>
<!-- ProcessTarget* -->
<g id="node24" class="node">
<title>ProcessTarget*</title>
<polygon fill="orange" stroke="black" points="734.72,-180 648.72,-180 648.72,-144 734.72,-144 734.72,-180"/>
<text text-anchor="middle" x="691.72" y="-159.8" font-family="Times,serif" font-size="9.00">ProcessTarget*</text>
</g>
<!-- AM_Root&#45;&gt;ProcessTarget* -->
<g id="edge23" class="edge">
<title>AM_Root&#45;&gt;ProcessTarget*</title>
<path fill="none" stroke="black" d="M691.72,-215.7C691.72,-207.98 691.72,-198.71 691.72,-190.11"/>
<polygon fill="black" stroke="black" points="695.22,-190.1 691.72,-180.1 688.22,-190.1 695.22,-190.1"/>
</g>
<!-- RequestTarget -->
<g id="node28" class="node">
<title>RequestTarget</title>
<ellipse fill="gray" stroke="black" cx="800.72" cy="-162" rx="48.49" ry="18"/>
<text text-anchor="middle" x="800.72" y="-159.8" font-family="Times,serif" font-size="9.00">RequestTarget</text>
</g>
<!-- AM_Root&#45;&gt;RequestTarget -->
<g id="edge27" class="edge">
<title>AM_Root&#45;&gt;RequestTarget</title>
<path fill="none" stroke="black" d="M713.52,-219C729.29,-208.88 750.85,-195.03 768.58,-183.64"/>
<polygon fill="black" stroke="black" points="770.94,-186.29 777.46,-177.94 767.15,-180.4 770.94,-186.29"/>
</g>
<!-- HaveTarget?* -->
<g id="node25" class="node">
<title>HaveTarget?*</title>
<ellipse fill="gray" stroke="black" cx="632.72" cy="-90" rx="45.72" ry="18"/>
<text text-anchor="middle" x="632.72" y="-87.8" font-family="Times,serif" font-size="9.00">HaveTarget?*</text>
</g>
<!-- ProcessTarget*&#45;&gt;HaveTarget?* -->
<g id="edge24" class="edge">
<title>ProcessTarget*&#45;&gt;HaveTarget?*</title>
<path fill="none" stroke="black" d="M677.14,-143.7C669.96,-135.18 661.18,-124.76 653.33,-115.45"/>
<polygon fill="black" stroke="black" points="655.86,-113.01 646.73,-107.62 650.5,-117.52 655.86,-113.01"/>
</g>
<!-- IsNotSingularity -->
<g id="node26" class="node">
<title>IsNotSingularity</title>
<ellipse fill="gray" stroke="black" cx="750.72" cy="-90" rx="54.04" ry="18"/>
<text text-anchor="middle" x="750.72" y="-87.8" font-family="Times,serif" font-size="9.00">IsNotSingularity</text>
</g>
<!-- ProcessTarget*&#45;&gt;IsNotSingularity -->
<g id="edge25" class="edge">
<title>ProcessTarget*&#45;&gt;IsNotSingularity</title>
<path fill="none" stroke="black" d="M706.31,-143.7C713.49,-135.18 722.27,-124.76 730.12,-115.45"/>
<polygon fill="black" stroke="black" points="732.95,-117.52 736.71,-107.62 727.59,-113.01 732.95,-117.52"/>
</g>
<!-- MoveToTarget* -->
<g id="node27" class="node">
<title>MoveToTarget*</title>
<ellipse fill="gray" stroke="black" cx="872.72" cy="-90" rx="49.8" ry="18"/>
<text text-anchor="middle" x="872.72" y="-87.8" font-family="Times,serif" font-size="9.00">MoveToTarget*</text>
</g>
<!-- ProcessTarget*&#45;&gt;MoveToTarget* -->
<g id="edge26" class="edge">
<title>ProcessTarget*&#45;&gt;MoveToTarget*</title>
<path fill="none" stroke="black" d="M735.08,-144.23C764.02,-133.04 801.88,-118.4 830.57,-107.3"/>
<polygon fill="black" stroke="black" points="831.86,-110.56 839.92,-103.69 829.33,-104.03 831.86,-110.56"/>
</g>
</g>
</svg>
